<mxfile host="app.diagrams.net" modified="2024-07-22T01:56:23.528Z" agent="Mozilla/5.0 (Macintosh; Intel Mac OS X 10_15_7) AppleWebKit/537.36 (KHTML, like Gecko) Chrome/126.0.0.0 Safari/537.36" etag="ziwOBhIf5y5XRWsvCrJZ" version="24.7.1" type="github">
  <diagram id="C5RBs43oDa-KdzZeNtuy" name="Page-1">
    <mxGraphModel dx="954" dy="606" grid="1" gridSize="10" guides="1" tooltips="1" connect="1" arrows="1" fold="1" page="1" pageScale="1" pageWidth="827" pageHeight="1169" math="0" shadow="0">
      <root>
        <mxCell id="WIyWlLk6GJQsqaUBKTNV-0" />
        <mxCell id="WIyWlLk6GJQsqaUBKTNV-1" parent="WIyWlLk6GJQsqaUBKTNV-0" />
        <mxCell id="hkD-2CHqcHPxtAEVovrj-1" value="" style="edgeStyle=orthogonalEdgeStyle;rounded=0;orthogonalLoop=1;jettySize=auto;html=1;" edge="1" parent="WIyWlLk6GJQsqaUBKTNV-1" source="WIyWlLk6GJQsqaUBKTNV-3" target="hkD-2CHqcHPxtAEVovrj-0">
          <mxGeometry relative="1" as="geometry" />
        </mxCell>
        <mxCell id="WIyWlLk6GJQsqaUBKTNV-3" value="开始" style="rounded=1;whiteSpace=wrap;html=1;fontSize=12;glass=0;strokeWidth=1;shadow=0;" parent="WIyWlLk6GJQsqaUBKTNV-1" vertex="1">
          <mxGeometry x="160" y="80" width="120" height="40" as="geometry" />
        </mxCell>
        <mxCell id="hkD-2CHqcHPxtAEVovrj-3" value="" style="edgeStyle=orthogonalEdgeStyle;rounded=0;orthogonalLoop=1;jettySize=auto;html=1;" edge="1" parent="WIyWlLk6GJQsqaUBKTNV-1" source="hkD-2CHqcHPxtAEVovrj-0" target="hkD-2CHqcHPxtAEVovrj-2">
          <mxGeometry relative="1" as="geometry" />
        </mxCell>
        <mxCell id="hkD-2CHqcHPxtAEVovrj-0" value="登录" style="whiteSpace=wrap;html=1;" vertex="1" parent="WIyWlLk6GJQsqaUBKTNV-1">
          <mxGeometry x="155" y="160" width="130" height="40" as="geometry" />
        </mxCell>
        <mxCell id="hkD-2CHqcHPxtAEVovrj-5" value="" style="edgeStyle=orthogonalEdgeStyle;rounded=0;orthogonalLoop=1;jettySize=auto;html=1;" edge="1" parent="WIyWlLk6GJQsqaUBKTNV-1" source="hkD-2CHqcHPxtAEVovrj-2" target="hkD-2CHqcHPxtAEVovrj-4">
          <mxGeometry relative="1" as="geometry" />
        </mxCell>
        <mxCell id="hkD-2CHqcHPxtAEVovrj-2" value="首页" style="whiteSpace=wrap;html=1;" vertex="1" parent="WIyWlLk6GJQsqaUBKTNV-1">
          <mxGeometry x="155" y="240" width="130" height="40" as="geometry" />
        </mxCell>
        <mxCell id="hkD-2CHqcHPxtAEVovrj-13" value="" style="edgeStyle=orthogonalEdgeStyle;rounded=0;orthogonalLoop=1;jettySize=auto;html=1;" edge="1" parent="WIyWlLk6GJQsqaUBKTNV-1" source="hkD-2CHqcHPxtAEVovrj-4" target="hkD-2CHqcHPxtAEVovrj-12">
          <mxGeometry relative="1" as="geometry" />
        </mxCell>
        <mxCell id="hkD-2CHqcHPxtAEVovrj-4" value="到店登记" style="whiteSpace=wrap;html=1;" vertex="1" parent="WIyWlLk6GJQsqaUBKTNV-1">
          <mxGeometry x="155" y="320" width="130" height="40" as="geometry" />
        </mxCell>
        <mxCell id="hkD-2CHqcHPxtAEVovrj-15" value="" style="edgeStyle=orthogonalEdgeStyle;rounded=0;orthogonalLoop=1;jettySize=auto;html=1;" edge="1" parent="WIyWlLk6GJQsqaUBKTNV-1" source="hkD-2CHqcHPxtAEVovrj-12" target="hkD-2CHqcHPxtAEVovrj-14">
          <mxGeometry relative="1" as="geometry" />
        </mxCell>
        <mxCell id="hkD-2CHqcHPxtAEVovrj-12" value="输入搜索案件信息" style="shape=parallelogram;perimeter=parallelogramPerimeter;whiteSpace=wrap;html=1;fixedSize=1;" vertex="1" parent="WIyWlLk6GJQsqaUBKTNV-1">
          <mxGeometry x="135" y="410" width="170" height="40" as="geometry" />
        </mxCell>
        <mxCell id="hkD-2CHqcHPxtAEVovrj-17" value="" style="edgeStyle=orthogonalEdgeStyle;rounded=0;orthogonalLoop=1;jettySize=auto;html=1;" edge="1" parent="WIyWlLk6GJQsqaUBKTNV-1" source="hkD-2CHqcHPxtAEVovrj-14" target="hkD-2CHqcHPxtAEVovrj-16">
          <mxGeometry relative="1" as="geometry" />
        </mxCell>
        <mxCell id="hkD-2CHqcHPxtAEVovrj-14" value="显示车辆案件" style="shape=parallelogram;perimeter=parallelogramPerimeter;whiteSpace=wrap;html=1;fixedSize=1;" vertex="1" parent="WIyWlLk6GJQsqaUBKTNV-1">
          <mxGeometry x="135" y="490" width="170" height="40" as="geometry" />
        </mxCell>
        <mxCell id="hkD-2CHqcHPxtAEVovrj-21" value="" style="edgeStyle=orthogonalEdgeStyle;rounded=0;orthogonalLoop=1;jettySize=auto;html=1;" edge="1" parent="WIyWlLk6GJQsqaUBKTNV-1" source="hkD-2CHqcHPxtAEVovrj-16" target="hkD-2CHqcHPxtAEVovrj-20">
          <mxGeometry relative="1" as="geometry" />
        </mxCell>
        <mxCell id="hkD-2CHqcHPxtAEVovrj-16" value="到店登记照片上传--拍照" style="whiteSpace=wrap;html=1;" vertex="1" parent="WIyWlLk6GJQsqaUBKTNV-1">
          <mxGeometry x="152.5" y="585" width="135" height="45" as="geometry" />
        </mxCell>
        <mxCell id="hkD-2CHqcHPxtAEVovrj-23" value="" style="edgeStyle=orthogonalEdgeStyle;rounded=0;orthogonalLoop=1;jettySize=auto;html=1;" edge="1" parent="WIyWlLk6GJQsqaUBKTNV-1" source="hkD-2CHqcHPxtAEVovrj-20" target="hkD-2CHqcHPxtAEVovrj-22">
          <mxGeometry relative="1" as="geometry" />
        </mxCell>
        <mxCell id="hkD-2CHqcHPxtAEVovrj-20" value="影像上传" style="whiteSpace=wrap;html=1;" vertex="1" parent="WIyWlLk6GJQsqaUBKTNV-1">
          <mxGeometry x="152.5" y="680" width="135" height="45" as="geometry" />
        </mxCell>
        <mxCell id="hkD-2CHqcHPxtAEVovrj-25" value="" style="edgeStyle=orthogonalEdgeStyle;rounded=0;orthogonalLoop=1;jettySize=auto;html=1;" edge="1" parent="WIyWlLk6GJQsqaUBKTNV-1" source="hkD-2CHqcHPxtAEVovrj-22" target="hkD-2CHqcHPxtAEVovrj-24">
          <mxGeometry relative="1" as="geometry" />
        </mxCell>
        <mxCell id="hkD-2CHqcHPxtAEVovrj-22" value="提交" style="whiteSpace=wrap;html=1;" vertex="1" parent="WIyWlLk6GJQsqaUBKTNV-1">
          <mxGeometry x="152.5" y="760" width="135" height="45" as="geometry" />
        </mxCell>
        <mxCell id="hkD-2CHqcHPxtAEVovrj-27" value="" style="edgeStyle=orthogonalEdgeStyle;rounded=0;orthogonalLoop=1;jettySize=auto;html=1;" edge="1" parent="WIyWlLk6GJQsqaUBKTNV-1" source="hkD-2CHqcHPxtAEVovrj-24" target="hkD-2CHqcHPxtAEVovrj-26">
          <mxGeometry relative="1" as="geometry" />
        </mxCell>
        <mxCell id="hkD-2CHqcHPxtAEVovrj-24" value="我要定损TAB页" style="whiteSpace=wrap;html=1;" vertex="1" parent="WIyWlLk6GJQsqaUBKTNV-1">
          <mxGeometry x="152.5" y="850" width="135" height="45" as="geometry" />
        </mxCell>
        <mxCell id="hkD-2CHqcHPxtAEVovrj-29" value="" style="edgeStyle=orthogonalEdgeStyle;rounded=0;orthogonalLoop=1;jettySize=auto;html=1;" edge="1" parent="WIyWlLk6GJQsqaUBKTNV-1" source="hkD-2CHqcHPxtAEVovrj-26" target="hkD-2CHqcHPxtAEVovrj-28">
          <mxGeometry relative="1" as="geometry">
            <Array as="points">
              <mxPoint x="400" y="953" />
              <mxPoint x="400" y="333" />
            </Array>
          </mxGeometry>
        </mxCell>
        <mxCell id="hkD-2CHqcHPxtAEVovrj-26" value="我要定损列表任选一项" style="whiteSpace=wrap;html=1;" vertex="1" parent="WIyWlLk6GJQsqaUBKTNV-1">
          <mxGeometry x="152.5" y="930" width="135" height="45" as="geometry" />
        </mxCell>
        <mxCell id="hkD-2CHqcHPxtAEVovrj-28" value="我要定损" style="whiteSpace=wrap;html=1;" vertex="1" parent="WIyWlLk6GJQsqaUBKTNV-1">
          <mxGeometry x="420" y="310" width="135" height="45" as="geometry" />
        </mxCell>
      </root>
    </mxGraphModel>
  </diagram>
</mxfile>
